<svg width="2198" height="2198" viewBox="0 0 2198 2198" fill="none" xmlns="http://www.w3.org/2000/svg">
<mask id="mask0_5_757" style="mask-type:alpha" maskUnits="userSpaceOnUse" x="0" y="0" width="2198" height="2198">
<rect x="0.8125" y="0.8125" width="2196.25" height="2196.25" fill="#F5F5F5"/>
</mask>
<g mask="url(#mask0_5_757)">
<path d="M2171.38 1301.1C2138.13 1471.52 2064.46 1631.47 1956.57 1767.51C1848.68 1903.55 1709.72 2011.71 1551.35 2082.9C1392.99 2154.09 1219.85 2186.24 1046.48 2176.63C873.116 2167.03 704.588 2115.96 555.056 2027.71C405.525 1939.46 279.357 1816.61 187.154 1669.48C94.9503 1522.35 39.4045 1355.25 25.1831 1182.2C10.9616 1009.15 38.4799 835.216 105.426 675.01C172.372 514.804 276.79 373.005 409.908 261.526" stroke="url(#paint0_linear_5_757)" stroke-width="23.4034" stroke-linecap="round"/>
<path d="M370.741 632.866C444.432 515.119 545.307 416.779 664.889 346.106C784.472 275.434 919.269 234.494 1057.96 226.726C1196.64 218.958 1335.17 244.588 1461.9 301.465C1588.62 358.341 1699.85 444.801 1786.23 553.582C1872.61 662.362 1931.62 790.286 1958.3 926.604C1984.98 1062.92 1978.56 1203.65 1939.57 1336.97C1900.58 1470.29 1830.16 1592.31 1734.23 1692.77C1638.3 1793.23 1519.66 1869.2 1388.28 1914.29" stroke="url(#paint1_linear_5_757)" stroke-opacity="0.9" stroke-width="18.7227" stroke-linecap="round"/>
<path d="M1782.56 1251.73C1745.35 1410.59 1653.38 1551.26 1522.79 1649.08C1392.21 1746.9 1231.35 1795.61 1068.44 1786.66C905.533 1777.72 750.974 1711.7 631.881 1600.18C512.788 1488.66 436.768 1338.77 417.157 1176.79" stroke="url(#paint2_linear_5_757)" stroke-opacity="0.8" stroke-width="14.9782" stroke-linecap="round"/>
<path d="M661.769 1426.19C583.557 1321.7 544.64 1193 551.844 1062.67C559.048 932.346 611.914 808.719 701.168 713.479C790.421 618.24 910.361 557.471 1039.95 541.833C1169.53 526.196 1300.48 556.688 1409.83 627.962" stroke="url(#paint3_linear_5_757)" stroke-opacity="0.7" stroke-width="11.9825" stroke-linecap="round"/>
</g>
<defs>
<linearGradient id="paint0_linear_5_757" x1="1106.5" y1="-3.32983" x2="1106.5" y2="2190" gradientUnits="userSpaceOnUse">
<stop stop-color="#2558BD"/>
<stop offset="1" stop-color="#6CE9FB"/>
</linearGradient>
<linearGradient id="paint1_linear_5_757" x1="792.09" y1="1912.39" x2="1420.9" y2="274.278" gradientUnits="userSpaceOnUse">
<stop stop-color="#2558BD"/>
<stop offset="1" stop-color="#6CE9FB"/>
</linearGradient>
<linearGradient id="paint2_linear_5_757" x1="538.678" y1="680.788" x2="1674.32" y2="1505.88" gradientUnits="userSpaceOnUse">
<stop stop-color="#2558BD"/>
<stop offset="1" stop-color="#6CE9FB"/>
</linearGradient>
<linearGradient id="paint3_linear_5_757" x1="1651.31" y1="957.495" x2="561.685" y2="1229.17" gradientUnits="userSpaceOnUse">
<stop stop-color="#2558BD"/>
<stop offset="1" stop-color="#6CE9FB"/>
</linearGradient>
</defs>
</svg>
