<svg xmlns="http://www.w3.org/2000/svg" width="230" height="230" fill="none" viewBox="0 0 230 230"><mask id="mask0_14_858" style="mask-type:alpha" width="230" height="230" x="0" y="0" maskUnits="userSpaceOnUse"><rect width="230" height="230" fill="#D9D9D9"/></mask><g mask="url(#mask0_14_858)"><path fill="#1B3D81" d="M205.383 167.06C206.319 155.282 202.971 144.768 195.341 135.517C187.699 126.404 176.06 119.343 160.423 114.336C169.201 112.663 176.021 109.301 180.885 104.25C185.737 99.3369 188.439 93.4166 188.989 86.4886C189.859 75.5425 187.15 65.7758 180.861 57.1888C174.71 48.6127 165.229 41.5846 152.419 36.1045C139.597 30.7629 123.903 27.3542 105.336 25.8784C98.4078 25.3278 92.8489 25.0951 88.6591 25.1804C88.829 21.2897 87.3975 18.2478 84.3649 16.0547C81.3322 13.8616 77.3218 12.5668 72.3337 12.1703C67.3456 11.7738 63.7935 12.607 61.6774 14.6697C59.7 16.7435 58.6791 19.939 58.6148 24.2564C58.32 43.7538 59.1313 64.2454 61.0488 85.7312C62.9553 107.356 65.8923 128.295 69.8598 148.55C70.5544 152.091 72.3015 154.67 75.1011 156.286C77.9007 157.903 81.656 158.899 86.367 159.273C94.8191 159.945 99.2323 157.926 99.6068 153.215C99.761 151.275 99.5215 149.025 98.8884 146.465C96.1449 135.371 93.7097 120.397 91.583 101.544C89.4452 82.8292 88.2805 65.0285 88.089 48.1417C94.7839 48.1161 100.21 48.2685 104.366 48.5989C123.765 50.1408 137.747 54.0408 146.313 60.299C155.006 66.7068 159.006 74.2753 158.312 83.0045C157.827 89.1011 154.787 94.0185 149.191 97.7568C143.734 101.506 134.893 103.104 122.667 102.55C119.884 102.469 117.889 103.007 116.682 104.166C115.474 105.325 114.76 107.29 114.54 110.061C114.221 114.08 114.793 117.402 116.258 120.028C117.722 122.654 120.666 124.213 125.089 124.704C134.904 125.763 143.657 127.923 151.345 131.183C159.172 134.454 165.185 138.627 169.383 143.702C173.57 148.915 175.41 154.708 174.903 161.082C174.265 169.118 169.815 175.109 161.553 179.053C153.281 183.137 140.97 184.529 124.62 183.229C109.794 182.051 95.6075 178.971 82.06 173.99C68.5014 169.148 57.1039 163.431 47.8673 156.841C43.6427 153.856 40.0062 152.242 36.9579 152C34.4639 151.801 32.458 152.479 30.9402 154.031C29.55 155.733 28.7503 157.901 28.541 160.533C28.2657 163.997 28.7217 167.031 29.9091 169.636C31.235 172.251 34.5425 175.372 39.8315 179C50.9418 186.575 64.1769 192.856 79.5367 197.842C94.8965 202.827 110.751 205.97 127.101 207.27C152.18 209.263 171.222 206.524 184.225 199.052C197.229 191.58 204.281 180.916 205.383 167.06Z"/></g></svg>