<svg width="85" height="85" viewBox="0 0 85 85" fill="none" xmlns="http://www.w3.org/2000/svg">
<g clip-path="url(#clip0_3_248)">
<path d="M42.4698 0C19.0047 0 -0.000976562 19.0057 -0.000976562 42.4708C-0.000976562 61.2641 12.1563 77.1376 29.0384 82.765C31.162 83.1366 31.9583 81.8624 31.9583 80.7476C31.9583 79.7389 31.9052 76.3943 31.9052 72.8374C21.2344 74.8017 18.4738 70.2361 17.6244 67.8471C17.1466 66.6261 15.0762 62.8568 13.2711 61.8481C11.7847 61.0518 9.66113 59.0875 13.2181 59.0344C16.5626 58.9813 18.9516 62.1135 19.7479 63.3877C23.5703 69.8114 29.6755 68.0064 32.1176 66.8915C32.4892 64.1309 33.604 62.2728 34.8251 61.211C25.3753 60.1493 15.5009 56.4862 15.5009 40.2411C15.5009 35.6224 17.1466 31.8 19.8541 28.827C19.4294 27.7653 17.9429 23.412 20.2788 17.5723C20.2788 17.5723 23.8358 16.4574 31.9583 21.9255C35.356 20.97 38.966 20.4922 42.576 20.4922C46.186 20.4922 49.796 20.97 53.1937 21.9255C61.3162 16.4043 64.8731 17.5723 64.8731 17.5723C67.209 23.412 65.7226 27.7653 65.2979 28.827C68.0054 31.8 69.6511 35.5693 69.6511 40.2411C69.6511 56.5392 59.7236 60.1493 50.2738 61.211C51.8134 62.5382 53.1406 65.0865 53.1406 69.0681C53.1406 74.7486 53.0875 79.3142 53.0875 80.7476C53.0875 81.8624 53.8838 83.1897 56.0074 82.765C64.439 79.9194 71.7658 74.5009 76.9562 67.2724C82.1466 60.044 84.9391 51.3697 84.9406 42.4708C84.9406 19.0057 65.9349 0 42.4698 0Z" fill="white"/>
</g>
<defs>
<clipPath id="clip0_3_248">
<rect width="84.9416" height="84.9416" fill="white"/>
</clipPath>
</defs>
</svg>
