<svg width="75" height="75" viewBox="0 0 75 75" fill="none" xmlns="http://www.w3.org/2000/svg">
<path d="M21.6875 15.6252C21.6867 17.2828 21.0274 18.8722 19.8547 20.0437C18.682 21.2152 17.092 21.8729 15.4344 21.8721C13.7768 21.8712 12.1874 21.212 11.0159 20.0393C9.84436 18.8666 9.18667 17.2765 9.1875 15.6189C9.18833 13.9613 9.8476 12.372 11.0203 11.2004C12.193 10.0289 13.783 9.37124 15.4406 9.37207C17.0982 9.3729 18.6876 10.0322 19.8591 11.2049C21.0306 12.3776 21.6883 13.9676 21.6875 15.6252ZM21.875 26.5002H9.375V65.6252H21.875V26.5002ZM41.625 26.5002H29.1875V65.6252H41.5V45.0939C41.5 33.6564 56.4062 32.5939 56.4062 45.0939V65.6252H68.75V40.8439C68.75 21.5627 46.6875 22.2814 41.5 31.7502L41.625 26.5002Z" fill="white"/>
</svg>
