<svg xmlns="http://www.w3.org/2000/svg" width="75" height="75" fill="none" viewBox="0 0 75 75"><path fill="#1B3D81" d="M37.5008 0C25.2375 0 15.1875 10.02 15.1875 22.2495C15.1875 26.988 16.701 31.392 19.2623 35.0115L34.7775 61.8337C36.9503 64.6725 38.3948 64.1333 40.2015 61.6838L57.315 32.5613C57.66 31.9358 57.9315 31.2697 58.1678 30.5895C59.2537 27.9431 59.8122 25.11 59.8118 22.2495C59.8125 10.02 49.7655 0 37.5008 0ZM37.5008 10.425C44.1053 10.425 49.3568 15.6645 49.3568 22.2495C49.3568 28.8345 44.1053 34.0718 37.5008 34.0718C30.897 34.0718 25.6433 28.8353 25.6433 22.2495C25.6433 15.6645 30.897 10.4258 37.5008 10.4258V10.425Z"/><path fill="#1B3D81" d="M51.6849 36.6812L51.6489 36.7757C51.6602 36.7472 51.6692 36.7179 51.6804 36.6894L51.6849 36.6812Z"/><path fill="#1B3D81" d="M25.5045 51.793C14.91 53.29 7.5 56.8712 7.5 62.143C7.5 69.244 19.881 75.0002 37.5 75.0002C55.119 75.0002 67.5 69.244 67.5 62.143C67.5 56.8712 60.0908 53.29 49.497 51.793L48.0293 54.292C56.0138 55.3997 61.5 57.7277 61.5 60.4292C61.5 64.2167 50.7548 67.2865 37.5 67.2865C24.2452 67.2865 13.5 64.2167 13.5 60.4292C13.4992 57.7367 18.9495 55.411 26.9587 54.2987C26.475 53.4632 25.989 52.6292 25.5045 51.793Z"/></svg>