<svg xmlns="http://www.w3.org/2000/svg" width="85" height="85" fill="none" viewBox="0 0 85 85"><path fill="#fff" d="M79.6332 42.4713C79.6332 52.2927 78.0405 60.256 75.917 60.256C73.7934 60.256 72.2008 52.2927 72.2008 42.4713C72.2008 32.6499 73.7934 24.6866 75.917 24.6866C78.0405 24.6866 79.6332 32.6499 79.6332 42.4713ZM70.3427 42.4713C70.3427 53.3545 65.5647 62.3795 59.9904 62.3795C54.4161 62.3795 49.6381 53.3545 49.6381 42.4713C49.6381 31.5881 54.4161 22.5631 59.9904 22.5631C65.5647 22.5631 70.3427 31.5881 70.3427 42.4713ZM47.2491 42.4713C47.2491 54.1508 37.9586 63.7068 26.2791 63.7068C14.5996 63.7068 5.30908 54.1508 5.30908 42.4713C5.30908 30.7918 14.5996 21.2358 26.2791 21.2358C37.9586 21.2358 47.2491 30.7918 47.2491 42.4713Z"/></svg>