<svg width="85" height="85" viewBox="0 0 85 85" fill="none" xmlns="http://www.w3.org/2000/svg">
<path d="M83.6794 17.4739C80.7241 18.7835 77.5494 19.6683 74.2118 20.0682C77.6556 18.0076 80.232 14.7645 81.4603 10.944C78.2248 12.8658 74.6838 14.2185 70.9911 14.9434C68.5079 12.2919 65.2187 10.5346 61.6344 9.94402C58.05 9.35348 54.371 9.96284 51.1684 11.6775C47.9658 13.3921 45.419 16.1161 43.9232 19.4266C42.4274 22.737 42.0664 26.4487 42.8962 29.9853C36.3404 29.6561 29.927 27.9522 24.0723 24.984C18.2176 22.0158 13.0524 17.8497 8.91202 12.7561C7.4963 15.1982 6.68227 18.0296 6.68227 21.0451C6.68069 23.7597 7.34918 26.4327 8.62844 28.827C9.90771 31.2213 11.7582 33.2628 14.0157 34.7704C11.3976 34.6871 8.83724 33.9797 6.54777 32.707V32.9194C6.54751 36.7267 7.8645 40.4169 10.2753 43.3638C12.6861 46.3107 16.0422 48.3327 19.7741 49.0868C17.3454 49.7441 14.799 49.841 12.3274 49.37C13.3804 52.646 15.4314 55.5107 18.1933 57.5632C20.9553 59.6156 24.2899 60.753 27.7304 60.816C21.89 65.4009 14.6771 67.8878 7.25209 67.8769C5.93683 67.8773 4.62267 67.8005 3.31641 67.6469C10.8532 72.4928 19.6266 75.0646 28.5869 75.0546C58.9186 75.0546 75.5001 49.9327 75.5001 28.1449C75.5001 27.437 75.4824 26.7221 75.4506 26.0142C78.6759 23.6818 81.46 20.7934 83.6724 17.4846L83.6794 17.4739V17.4739Z" fill="white"/>
</svg>
